<svg width="26" height="25" viewBox="0 0 26 25" fill="none" xmlns="http://www.w3.org/2000/svg">
<path d="M24.7 17.0833C25.5595 15.4471 26.0049 13.6387 26 11.8056V11.1111C25.8339 8.21621 24.5631 5.48191 22.4309 3.43178C20.2988 1.38165 17.4551 0.15975 14.4444 3.95667e-05H13.7222C11.8157 -0.00473994 9.93504 0.423554 8.23332 1.25004C6.19414 2.22999 4.47896 3.73649 3.27992 5.60079C2.08088 7.4651 1.44532 9.61357 1.44444 11.8056C1.43947 13.6387 1.8849 15.4471 2.74444 17.0833L0 25L8.23332 22.3611C9.93504 23.1876 11.8157 23.6159 13.7222 23.6111C16.0019 23.6103 18.2363 22.9992 20.1752 21.8462C22.114 20.6933 23.6808 19.0441 24.7 17.0833Z" fill="#2E2D2D"/>
</svg>
