<svg width="39" height="39" viewBox="0 0 39 39" fill="none" xmlns="http://www.w3.org/2000/svg">
<path fill-rule="evenodd" clip-rule="evenodd" d="M10.5 0C11.3284 0 12 0.67158 12 1.5V3H27V1.5C27 0.67158 27.6717 0 28.5 0C29.3283 0 30 0.67158 30 1.5V3H34.5C36.9852 3 39 5.01471 39 7.5V34.5C39 36.9852 36.9852 39 34.5 39H4.5C2.01471 39 0 36.9852 0 34.5V7.5C0 5.01471 2.01471 3 4.5 3H9V1.5C9 0.67158 9.67158 0 10.5 0ZM27 6V7.5C27 8.32842 27.6717 9 28.5 9C29.3283 9 30 8.32842 30 7.5V6H34.5C35.3283 6 36 6.67158 36 7.5V12H3V7.5C3 6.67158 3.67158 6 4.5 6H9V7.5C9 8.32842 9.67158 9 10.5 9C11.3284 9 12 8.32842 12 7.5V6H27ZM3 15V34.5C3 35.3283 3.67158 36 4.5 36H34.5C35.3283 36 36 35.3283 36 34.5V15H3ZM18 19.5C18 18.6716 18.6716 18 19.5 18C20.3284 18 21 18.6716 21 19.5C21 20.3284 20.3284 21 19.5 21C18.6716 21 18 20.3284 18 19.5ZM25.5 18C24.6716 18 24 18.6716 24 19.5C24 20.3284 24.6716 21 25.5 21C26.3284 21 27 20.3284 27 19.5C27 18.6716 26.3284 18 25.5 18ZM30 19.5C30 18.6716 30.6717 18 31.5 18C32.3283 18 33 18.6716 33 19.5C33 20.3284 32.3283 21 31.5 21C30.6717 21 30 20.3284 30 19.5ZM31.5 24C30.6717 24 30 24.6716 30 25.5C30 26.3284 30.6717 27 31.5 27C32.3283 27 33 26.3284 33 25.5C33 24.6716 32.3283 24 31.5 24ZM24 25.5C24 24.6716 24.6716 24 25.5 24C26.3284 24 27 24.6716 27 25.5C27 26.3284 26.3284 27 25.5 27C24.6716 27 24 26.3284 24 25.5ZM19.5 24C18.6716 24 18 24.6716 18 25.5C18 26.3284 18.6716 27 19.5 27C20.3284 27 21 26.3284 21 25.5C21 24.6716 20.3284 24 19.5 24ZM12 25.5C12 24.6716 12.6716 24 13.5 24C14.3284 24 15 24.6716 15 25.5C15 26.3284 14.3284 27 13.5 27C12.6716 27 12 26.3284 12 25.5ZM7.5 24C6.67158 24 6 24.6716 6 25.5C6 26.3284 6.67158 27 7.5 27C8.32842 27 9 26.3284 9 25.5C9 24.6716 8.32842 24 7.5 24ZM6 31.5C6 30.6717 6.67158 30 7.5 30C8.32842 30 9 30.6717 9 31.5C9 32.3283 8.32842 33 7.5 33C6.67158 33 6 32.3283 6 31.5ZM13.5 30C12.6716 30 12 30.6717 12 31.5C12 32.3283 12.6716 33 13.5 33C14.3284 33 15 32.3283 15 31.5C15 30.6717 14.3284 30 13.5 30ZM18 31.5C18 30.6717 18.6716 30 19.5 30C20.3284 30 21 30.6717 21 31.5C21 32.3283 20.3284 33 19.5 33C18.6716 33 18 32.3283 18 31.5ZM25.5 30C24.6716 30 24 30.6717 24 31.5C24 32.3283 24.6716 33 25.5 33C26.3284 33 27 32.3283 27 31.5C27 30.6717 26.3284 30 25.5 30Z" fill="#F4F4F4"/>
</svg>
