<svg width="90" height="18" viewBox="0 0 90 18" fill="none" xmlns="http://www.w3.org/2000/svg">
<path d="M9.26904 1.22052L11.5865 5.91552L16.769 6.67302L13.019 10.3255L13.904 15.4855L9.26904 13.048L4.63404 15.4855L5.51904 10.3255L1.76904 6.67302L6.95154 5.91552L9.26904 1.22052Z" fill="#F5DF55" stroke="#F5DF55" stroke-linecap="round" stroke-linejoin="round"/>
<path d="M27.269 1.22052L29.5865 5.91552L34.769 6.67302L31.019 10.3255L31.904 15.4855L27.269 13.048L22.634 15.4855L23.519 10.3255L19.769 6.67302L24.9515 5.91552L27.269 1.22052Z" fill="#F5DF55" stroke="#F5DF55" stroke-linecap="round" stroke-linejoin="round"/>
<path d="M45.269 1.22052L47.5865 5.91552L52.769 6.67302L49.019 10.3255L49.904 15.4855L45.269 13.048L40.634 15.4855L41.519 10.3255L37.769 6.67302L42.9515 5.91552L45.269 1.22052Z" fill="#F5DF55" stroke="#F5DF55" stroke-linecap="round" stroke-linejoin="round"/>
<path d="M63.269 1.22052L65.5865 5.91552L70.769 6.67302L67.019 10.3255L67.904 15.4855L63.269 13.048L58.634 15.4855L59.519 10.3255L55.769 6.67302L60.9515 5.91552L63.269 1.22052Z" fill="#F5DF55" stroke="#F5DF55" stroke-linecap="round" stroke-linejoin="round"/>
<path d="M81.269 1.22052L83.5865 5.91552L88.769 6.67302L85.019 10.3255L85.904 15.4855L81.269 13.048L76.634 15.4855L77.519 10.3255L73.769 6.67302L78.9515 5.91552L81.269 1.22052Z" fill="#F5DF55" stroke="#F5DF55" stroke-linecap="round" stroke-linejoin="round"/>
</svg>
